<?xml version="1.0"?><svg data-name="015_HEALTH" height="24" id="_015_HEALTH" viewBox="0 0 24 24" width="24" xmlns="http://www.w3.org/2000/svg"><title/><path d="M12,21.373c-1.38477-.001-3.5459-1.68164-4.1748-2.19678a1,1,0,1,1,1.2666-1.54785A7.92792,7.92792,0,0,0,12.00391,19.373c1.23877-.05859,8.28467-5.15723,8.28467-10.92969a6.51162,6.51162,0,0,0-.25-1.79492A3.68085,3.68085,0,0,0,16.50586,4a3.88125,3.88125,0,0,0-3.57715,2.74463,1.0001,1.0001,0,0,1-1.85693,0A3.88172,3.88172,0,0,0,7.49463,4a3.682,3.682,0,0,0-3.5332,2.64795,6.53842,6.53842,0,0,0-.24951,1.79541A10.92748,10.92748,0,0,0,6.41943,14.939a.99973.99973,0,0,1-1.55664,1.25488A12.86391,12.86391,0,0,1,1.71191,8.44336a8.52843,8.52843,0,0,1,.32666-2.34473A5.69045,5.69045,0,0,1,7.49463,2,5.54233,5.54233,0,0,1,12,4.32715,5.54254,5.54254,0,0,1,16.50586,2a5.68928,5.68928,0,0,1,5.45557,4.09814,8.50605,8.50605,0,0,1,.32715,2.34521C22.28857,15.26074,14.37354,21.373,12,21.373Z" style="fill:#333"/><path d="M11.6709,15.64307a1.00062,1.00062,0,0,1-.707-.293L8.793,13.1792A.99989.99989,0,0,1,10.207,11.76514l1.36865,1.36816,3.13379-4.04541a.99993.99993,0,1,1,1.58105,1.22461l-3.8291,4.94287a.99988.99988,0,0,1-.72754.38574C11.71289,15.64258,11.69189,15.64307,11.6709,15.64307Z" style="fill:#333"/></svg>