<?xml version="1.0"?><svg data-name="Layer 1" id="Layer_1" viewBox="0 0 512 512" xmlns="http://www.w3.org/2000/svg"><title/><path d="M141.18,186v144.6c0,25,38.39,44.61,87.41,44.61s87.4-19.6,87.4-44.61V186c0-25-38.39-44.61-87.4-44.61S141.18,161,141.18,186Zm11.38,70.46c14.89,13.45,43,22.35,76,22.35s61.13-8.9,76-22.35v25.94c0,15.72-31.22,33.24-76,33.24s-76-17.52-76-33.24Zm76,11c-44.81,0-76-17.52-76-33.24V208.27c14.89,13.45,43,22.36,76,22.36s61.13-8.91,76-22.36v25.94C304.61,249.93,273.39,267.45,228.59,267.45Zm0,96.4c-44.81,0-76-17.52-76-33.24V304.67c14.89,13.45,43,22.35,76,22.35s61.13-8.9,76-22.35v25.94C304.61,346.33,273.39,363.85,228.59,363.85Zm0-211.08c44.8,0,76,17.52,76,33.24s-31.22,33.24-76,33.24-76-17.52-76-33.24S183.78,152.77,228.59,152.77Z"/><path d="M349.75,398.5a185.3,185.3,0,0,1-227.54,10h48.22a5.69,5.69,0,0,0,0-11.38H105.62a1.89,1.89,0,0,0-.23.05,4.93,4.93,0,0,0-1.13.23,4.7,4.7,0,0,0-1,.28,4.9,4.9,0,0,0-.82.55,5,5,0,0,0-1,.75c0,.05-.13.08-.18.14a4.9,4.9,0,0,0-.39.71,5.75,5.75,0,0,0-.57,1,6,6,0,0,0-.24,1.19,4.87,4.87,0,0,0-.15.76v64.8a5.69,5.69,0,1,0,11.37,0V414.45a196.29,196.29,0,0,0,245.81-7.28,5.69,5.69,0,1,0-7.37-8.67Z"/><path d="M151.87,88.43l-24,41.62a5.69,5.69,0,0,0,2.08,7.77,5.61,5.61,0,0,0,2.84.76,5.68,5.68,0,0,0,4.93-2.84l32.4-56.12c0-.06,0-.12.06-.18a5.33,5.33,0,0,0,.42-1.26,5.59,5.59,0,0,0,.23-.87,5.56,5.56,0,0,0-.07-1,6.39,6.39,0,0,0-.18-1.24c0-.06,0-.13,0-.19a5.58,5.58,0,0,0-.35-.58,5.34,5.34,0,0,0-.7-1.17,6.22,6.22,0,0,0-.72-.64,6.5,6.5,0,0,0-.74-.65L111.9,39.44a5.69,5.69,0,0,0-5.69,9.86l46,26.58C80.09,106.69,32.35,178,32.35,257a196.68,196.68,0,0,0,3.33,35.4,5.71,5.71,0,0,0,5.6,4.67,5.86,5.86,0,0,0,1-.09,5.68,5.68,0,0,0,4.58-6.61A185.28,185.28,0,0,1,43.73,257C43.73,184.3,86.59,118.53,151.87,88.43Z"/><path d="M478.89,256.11a5.66,5.66,0,0,0-7.77-2.08L425,280.64A189.37,189.37,0,0,0,426.72,257c0-83-52.61-157.54-130.92-185.53A5.69,5.69,0,1,0,292,82.15C365.76,108.53,415.34,178.78,415.34,257c0,5.62-.32,11.32-.9,17.13l-24.08-41.71a5.69,5.69,0,0,0-9.85,5.69l32.4,56.11,0,.05a5.64,5.64,0,0,0,2,2c.12.07.26.09.38.15a5.09,5.09,0,0,0,1.43.57,5.86,5.86,0,0,0,1,.09h0a5.74,5.74,0,0,0,2.84-.76l56.12-32.4A5.69,5.69,0,0,0,478.89,256.11Z"/></svg>